<?xml version="1.0" standalone="no"?>
<!DOCTYPE svg PUBLIC "-//W3C//DTD SVG 20010904//EN"
 "http://www.w3.org/TR/2001/REC-SVG-20010904/DTD/svg10.dtd">
<svg version="1.0" xmlns="http://www.w3.org/2000/svg"
 width="740.000000pt" height="592.000000pt" viewBox="0 0 740.000000 592.000000"
 preserveAspectRatio="xMidYMid meet">
<metadata>
Created by potrace 1.16, written by Peter Selinger 2001-2019
</metadata>
<g transform="translate(0.000000,592.000000) scale(0.100000,-0.100000)"
fill="#000000" stroke="none">
<path d="M4681 5904 c-79 -29 -118 -81 -286 -379 -87 -154 -159 -281 -159
-281 -1 -1 -55 9 -121 22 -168 32 -390 61 -590 75 -184 13 -567 7 -740 -11
-539 -57 -990 -181 -1420 -389 -730 -354 -1195 -869 -1336 -1479 -26 -112 -37
-411 -20 -533 96 -673 622 -1269 1451 -1641 497 -223 1012 -336 1664 -364
l139 -6 -6 -58 c-14 -134 -105 -314 -239 -475 -114 -137 -294 -287 -420 -351
-27 -13 -48 -27 -48 -31 0 -12 338 7 470 27 639 95 1198 378 1661 840 161 159
227 236 319 367 37 54 54 67 114 96 110 52 301 163 411 238 550 375 877 865
935 1401 15 147 13 389 -6 499 -54 315 -223 619 -510 918 l-96 101 109 202
c61 112 116 220 123 242 21 66 9 171 -29 247 -99 194 -343 396 -693 573 -90
45 -215 100 -278 121 -104 34 -127 39 -235 41 -91 3 -130 0 -164 -12z m326
-235 c391 -125 839 -432 877 -599 4 -20 -83 -183 -433 -810 l-439 -785 -208
-119 c-281 -159 -923 -516 -929 -516 -3 0 -5 294 -4 653 l0 652 437 770 c310
545 445 774 462 783 35 18 124 7 237 -29z m-3414 -2555 c63 -21 130 -83 164
-152 37 -74 39 -182 6 -254 -49 -107 -161 -181 -273 -182 -253 0 -382 289
-224 501 66 87 212 126 327 87z m800 0 c63 -21 130 -83 164 -152 23 -47 28
-70 28 -132 0 -84 -13 -123 -62 -192 -73 -101 -231 -142 -348 -89 -185 82
-237 307 -109 478 66 87 212 126 327 87z m800 0 c62 -21 130 -83 162 -148 100
-204 -42 -441 -264 -440 -243 1 -381 276 -240 480 72 105 217 151 342 108z"/>
<path d="M3990 3723 l0 -368 151 -87 c83 -49 156 -88 162 -88 18 1 601 344
602 354 0 10 -891 556 -906 556 -5 0 -9 -165 -9 -367z"/>
</g>
</svg>
