<svg width="28" height="28" viewBox="0 0 28 28" fill="none" xmlns="http://www.w3.org/2000/svg">
<path d="M2.75 25.25H4.4L21.0125 8.6375L19.3625 6.9875L2.75 23.6V25.25ZM25.775 7.025L20.975 2.225L22.55 0.649997C22.975 0.224997 23.5 0.0124969 24.125 0.0124969C24.75 0.0124969 25.275 0.224997 25.7 0.649997L27.35 2.3C27.775 2.725 27.9875 3.25 27.9875 3.875C27.9875 4.5 27.775 5.025 27.35 5.45L25.775 7.025ZM24.2 8.6L5.3 27.5H0.5V22.7L19.4 3.8L24.2 8.6ZM20.1875 7.8125L19.3625 6.9875L21.0125 8.6375L20.1875 7.8125Z" fill="#55A3FF"/>
</svg>
